<?xml version="1.0" encoding="UTF-8"?><svg id="Calque_2" xmlns="http://www.w3.org/2000/svg" viewBox="0 0 1870.68 1870.68"><defs><style>.cls-1{fill:#e8d1b1;}.cls-2{fill:#c8953b;}.cls-3{fill:#d6b785;}</style></defs><g id="history"><path class="cls-2" d="M935.34,1870.68C419.58,1870.68,0,1451.1,0,935.34S419.58,0,935.34,0s935.34,419.58,935.34,935.34-419.58,935.34-935.34,935.34h0ZM935.34,41.57C442.52,41.57,41.57,442.52,41.57,935.34s400.95,893.77,893.77,893.77,893.77-400.95,893.77-893.77S1428.16,41.57,935.34,41.57h0Z"/><path class="cls-1" d="M622.75,1003.71l110.97,307.15s13.87,28.74,28.73,28.74,235.82-229.88,235.82-229.88l245.72-474.61-617.29,289.31-3.96,79.29Z"/><path class="cls-3" d="M769.88,1082.48l-21.3,226.4s-8.92,69.37,60.44,0c69.36-69.37,135.74-122.86,135.74-122.86"/><path class="cls-2" d="M624.75,1014.67l-228.27-74.38s-27.28-11.07-18.5-36.17c1.81-5.18,5.46-9.58,16.37-17.15,50.58-35.25,936.17-353.56,936.17-353.56,0,0,25-8.43,39.75-2.82,7.43,2.3,13.04,8.42,14.69,16.02,1.59,6.59,2.26,13.37,1.98,20.15-.07,5.86-.78,11.29-1.32,19.81-5.39,87.03-166.8,736.53-166.8,736.53,0,0-9.66,38.01-44.26,39.31-17.18.55-33.85-5.89-46.18-17.86-67.9-58.4-302.57-216.12-354.43-250.8-2.37-1.61-3.92-4.17-4.26-7.01-.72-3.66,3.25-8.18,3.25-8.18,0,0,408.63-363.22,419.51-401.35.84-2.95-2.34-4.41-6.61-3.12-27.14,9.98-497.63,307.1-549.56,339.89-3.74,1.13-7.69,1.37-11.54.7Z"/></g></svg>