<?xml version="1.0" encoding="UTF-8"?><svg id="Calque_2" xmlns="http://www.w3.org/2000/svg" viewBox="0 0 1870.68 1870.68"><defs><style>.cls-1{fill:#c8953b;}</style></defs><g id="history"><path class="cls-1" d="M935.34,1870.68C419.58,1870.68,0,1451.1,0,935.34S419.58,0,935.34,0s935.34,419.58,935.34,935.34-419.58,935.34-935.34,935.34h0ZM935.34,41.57C442.52,41.57,41.57,442.52,41.57,935.34s400.95,893.77,893.77,893.77,893.77-400.95,893.77-893.77S1428.16,41.57,935.34,41.57h0Z"/><path class="cls-1" d="M1265.5,450.9h169.43l-372.02,423.58,434.63,574.6h-341.08l-267.04-349.18-305.72,349.18h-169.43l394.12-453.05L392.18,450.9h349.55l241.26,318.98,282.51-318.98ZM1206.2,1349.64h93.93l-607.75-802.97h-100.92l614.75,802.97Z"/></g></svg>