<?xml version="1.0" encoding="UTF-8"?><svg id="Calque_2" xmlns="http://www.w3.org/2000/svg" viewBox="0 0 833.66 916.4"><defs><style>.cls-1{fill:#fff;}</style></defs><g id="history"><path class="cls-1" d="M774.12,916.4H59.55c-32.84,0-59.55-26.71-59.55-59.55v-423.5c0-32.83,26.71-59.55,59.55-59.55h714.57c32.83,0,59.55,26.71,59.55,59.55v423.5c0,32.83-26.71,59.55-59.55,59.55h0ZM59.55,413.5c-10.93,0-19.85,8.9-19.85,19.85v423.5c0,10.95,8.92,19.85,19.85,19.85h714.57c10.93,0,19.85-8.9,19.85-19.85v-423.5c0-10.95-8.92-19.85-19.85-19.85H59.55Z"/><path class="cls-1" d="M671.54,403.73c-10.97,0-19.85-8.88-19.85-19.85v-109.25c0-129.54-105.37-234.93-234.86-234.93s-234.93,105.39-234.93,234.93v109.25c0,10.97-8.88,19.85-19.85,19.85s-19.85-8.88-19.85-19.85v-109.25C142.2,123.2,265.4,0,416.83,0s274.55,123.2,274.55,274.63v109.25c0,10.97-8.88,19.85-19.85,19.85h0Z"/><path class="cls-1" d="M476.3,777.45h-119.09v-102.04c-26.75-19.11-42.95-49.95-42.95-83.04,0-56.56,46.01-102.58,102.58-102.58s102.5,46.02,102.5,102.58c0,33.05-16.24,63.91-43.03,83.08v102h0ZM396.9,737.75h39.7v-84.9l10.23-5.66c20.24-11.18,32.8-32.2,32.8-54.82,0-34.68-28.19-62.88-62.8-62.88s-62.88,28.2-62.88,62.88c0,22.66,12.52,43.63,32.68,54.72l10.27,5.66v85h0Z"/></g></svg>