<?xml version="1.0" encoding="UTF-8"?><svg id="Calque_2" xmlns="http://www.w3.org/2000/svg" viewBox="0 0 1787.54 1787.54"><defs><style>.cls-1{fill:#c8953b;}</style></defs><g id="history"><path class="cls-1" d="M893.77,1787.54C400.94,1787.54,0,1386.6,0,893.77S400.94,0,893.77,0s893.77,400.93,893.77,893.77-400.93,893.77-893.77,893.77h0ZM893.77,39.72C422.85,39.72,39.72,422.85,39.72,893.77s383.13,854.05,854.05,854.05,854.05-383.13,854.05-854.05S1364.69,39.72,893.77,39.72h0Z"/><path class="cls-1" d="M434.02,858.63c-16.95,221.94,149.8,416.28,371.72,433.23,10.95.84,20.48-7.34,21.32-18.29s-7.34-20.48-18.29-21.32c-200.07-15.28-350.42-190.49-335.14-390.6,15.28-200.05,190.49-350.38,390.56-335.11,200.13,15.28,350.5,190.48,335.23,390.53-.84,10.94,7.34,20.48,18.29,21.32,10.95.84,20.48-7.35,21.32-18.29,16.94-221.91-149.85-416.21-371.81-433.16-221.92-16.95-416.24,149.78-433.19,371.69h0Z"/><path class="cls-1" d="M1078.4,840.3c-.41,5.41,1.4,11,5.45,15.24l112.05,117.1c7.01,7.33,18.42,8.2,26.45,2.02l128.53-98.73c8.68-6.71,10.32-19.19,3.64-27.85-6.67-8.7-19.15-10.33-27.85-3.64l-114.4,87.87-99.73-104.22c-7.58-7.93-20.16-8.21-28.08-.63-3.7,3.53-5.72,8.12-6.08,12.84h0Z"/></g></svg>