<?xml version="1.0" encoding="UTF-8"?><svg id="Calque_2" xmlns="http://www.w3.org/2000/svg" viewBox="0 0 1775.63 1775.56"><defs><style>.cls-1{fill:#c8953b;}</style></defs><g id="history"><path class="cls-1" d="M887.78,1775.56C398.27,1775.56,0,1377.29,0,887.78S398.27,0,887.78,0s887.85,398.28,887.85,887.78-398.27,887.78-887.85,887.78h0ZM887.78,78.05c-446.48,0-809.73,363.25-809.73,809.73s363.25,809.73,809.73,809.73,809.81-363.25,809.81-809.73S1334.3,78.05,887.78,78.05h0Z"/><path class="cls-1" d="M887.78,1775.56c-292.26,0-530.02-398.27-530.02-887.78S595.52,0,887.78,0s529.86,398.28,529.86,887.78-237.68,887.78-529.86,887.78h0ZM887.78,78.05c-249.23,0-451.97,363.25-451.97,809.73s202.74,809.73,451.97,809.73,451.82-363.25,451.82-809.73S1136.9,78.05,887.78,78.05h0Z"/><path class="cls-1" d="M887.78,1775.56c-21.57,0-39.02-17.45-39.02-39.02V39.02c0-21.56,17.45-39.02,39.02-39.02,489.58,0,887.85,398.28,887.85,887.78s-398.27,887.78-887.85,887.78h0ZM926.8,78.96v1617.64c428.49-20.42,770.78-375.4,770.78-808.82S1355.3,99.39,926.8,78.96h0Z"/><path class="cls-1" d="M1681.2,1225.96H94.13c-16.23,0-30.79-10.06-36.51-25.26C19.4,1099.13,0,993.88,0,887.78s19.47-211.62,57.85-313.06c5.75-15.16,20.27-25.19,36.51-25.19h1586.85c16.23,0,30.75,10.07,36.51,25.23,38.45,101.75,57.92,207.08,57.92,313.02s-19.47,211.28-57.92,312.95c-5.76,15.16-20.28,25.22-36.51,25.22h0ZM121.6,1147.91h1532.2c29.08-84.94,43.78-172.33,43.78-260.13s-14.7-175.18-43.82-260.21H121.76c-29,84.76-43.71,172.14-43.71,260.21s14.63,175.26,43.56,260.13h0Z"/></g></svg>