<?xml version="1.0" encoding="UTF-8"?><svg id="Calque_2" xmlns="http://www.w3.org/2000/svg" viewBox="0 0 798.89 948.72"><defs><style>.cls-1{fill:#c8953b;}</style></defs><g id="history"><path class="cls-1" d="M798.89,493.98c0,3.01-.68,6.07-2.05,8.93-3.42,7.11-10.61,11.66-18.54,11.66h-178.44s0,413.57,0,413.57c0,11.38-9.21,20.59-20.59,20.59H219.63c-11.38,0-20.59-9.21-20.59-20.59v-413.57s-178.43,0-178.43,0c-7.92,0-15.12-4.55-18.54-11.66-3.5-7.2-2.5-15.6,2.45-21.79L383.4,7.72C387.29,2.86,393.24,0,399.48,0s12.18,2.86,16.08,7.72l378.83,473.4c2.98,3.74,4.5,8.28,4.5,12.87h0ZM558.7,907.55v-413.57c0-11.38,9.21-20.59,20.59-20.59h156.2S399.48,53.52,399.48,53.52L63.47,473.4h156.16c11.38,0,20.59,9.21,20.59,20.59v413.57s318.48,0,318.48,0h0Z"/></g></svg>