<?xml version="1.0" encoding="UTF-8"?><svg id="Calque_2" xmlns="http://www.w3.org/2000/svg" viewBox="0 0 798.89 948.72"><defs><style>.cls-1{fill:#c8953b;}</style></defs><g id="history"><path class="cls-1" d="M0,454.74c0-3.01.68-6.07,2.05-8.93,3.42-7.11,10.61-11.66,18.54-11.66h178.44s0-413.57,0-413.57c0-11.38,9.21-20.59,20.59-20.59h359.65c11.38,0,20.59,9.21,20.59,20.59v413.57s178.43,0,178.43,0c7.92,0,15.12,4.55,18.54,11.66,3.5,7.2,2.5,15.6-2.45,21.79l-378.87,473.4c-3.9,4.86-9.85,7.72-16.08,7.72s-12.18-2.86-16.08-7.72L4.5,467.61C1.53,463.87,0,459.33,0,454.74h0ZM240.2,41.17v413.57c0,11.38-9.21,20.59-20.59,20.59H63.41s336.01,419.88,336.01,419.88l336.01-419.88h-156.16c-11.38,0-20.59-9.21-20.59-20.59V41.17s-318.48,0-318.48,0h0Z"/></g></svg>