<?xml version="1.0" encoding="UTF-8"?><svg id="Calque_2" xmlns="http://www.w3.org/2000/svg" viewBox="0 0 1827.56 1827.56"><defs><style>.cls-1{fill:#c8953b;}</style></defs><g id="history"><path class="cls-1" d="M913.78,1827.56C409.93,1827.56,0,1417.63,0,913.78S409.93,0,913.78,0s913.78,409.93,913.78,913.78-409.93,913.78-913.78,913.78h0ZM913.78,40.61C432.3,40.61,40.61,432.3,40.61,913.78s391.69,873.17,873.17,873.17,873.17-391.69,873.17-873.17S1395.26,40.61,913.78,40.61h0Z"/><path class="cls-1" d="M915.44,576.83c-11.23,0-20.31-9.09-20.31-20.31,0-51.52,41.88-93.4,93.36-93.4h270.01c11.22,0,20.31,9.08,20.31,20.31s-9.09,20.31-20.31,20.31h-270.01c-29.07,0-52.75,23.68-52.75,52.79,0,11.22-9.08,20.31-20.31,20.31h0Z"/><path class="cls-1" d="M915.44,1326.41c-11.23,0-20.31-9.08-20.31-20.31,0-51.52,41.88-93.4,93.36-93.4h270.01c11.22,0,20.31,9.08,20.31,20.31s-9.09,20.31-20.31,20.31h-270.01c-29.07,0-52.75,23.68-52.75,52.79,0,11.23-9.08,20.31-20.31,20.31h0Z"/><path class="cls-1" d="M916,576.83c-11.23,0-20.31-9.09-20.31-20.31,0-29.11-23.68-52.79-52.75-52.79h-270.09c-11.23,0-20.31-9.09-20.31-20.31s9.08-20.31,20.31-20.31h270.09c51.48,0,93.36,41.88,93.36,93.4,0,11.22-9.09,20.31-20.31,20.31h0Z"/><path class="cls-1" d="M916,1326.41c-11.23,0-20.31-9.08-20.31-20.31,0-29.11-23.68-52.79-52.75-52.79h-270.09c-11.23,0-20.31-9.08-20.31-20.31s9.08-20.31,20.31-20.31h270.09c51.48,0,93.36,41.88,93.36,93.4,0,11.23-9.09,20.31-20.31,20.31h0Z"/><path class="cls-1" d="M568.89,1253.32c-11.23,0-20.31-9.08-20.31-20.31V484.89c0-11.23,9.08-20.31,20.31-20.31s20.31,9.08,20.31,20.31v748.12c0,11.23-9.08,20.31-20.31,20.31h0Z"/><path class="cls-1" d="M1258.51,1253.32c-11.23,0-20.31-9.08-20.31-20.31V484.89c0-11.23,9.08-20.31,20.31-20.31s20.31,9.08,20.31,20.31v748.12c0,11.23-9.09,20.31-20.31,20.31h0Z"/><path class="cls-1" d="M915.44,1312.69c-11.23,0-20.31-9.08-20.31-20.31v-748.12c0-11.23,9.08-20.31,20.31-20.31s20.31,9.08,20.31,20.31v748.12c0,11.23-9.08,20.31-20.31,20.31h0Z"/><path class="cls-1" d="M1359.72,1364.41h-778.22c-11.22,0-20.31-9.09-20.31-20.31s9.09-20.31,20.31-20.31h767.51v-799.68c0-11.22,9.08-20.31,20.31-20.31s20.31,9.09,20.31,20.31v810.38c0,16.5-13.41,29.91-29.9,29.91h0Z"/><path class="cls-1" d="M1245.98,1364.41H467.83c-16.54,0-29.98-13.41-29.98-29.91v-810.38c0-11.22,9.09-20.31,20.31-20.31s20.31,9.09,20.31,20.31v799.68h767.51c11.22,0,20.31,9.08,20.31,20.31s-9.09,20.31-20.31,20.31h0Z"/></g></svg>