<?xml version="1.0" encoding="UTF-8"?><svg id="Calque_2" xmlns="http://www.w3.org/2000/svg" viewBox="0 0 1823.12 1823.12"><defs><style>.cls-1{fill:#c8953b;}</style></defs><g id="up"><path class="cls-1" d="M1823.12,911.56c0,502.63-408.93,911.56-911.56,911.56C408.94,1823.12,0,1414.19,0,911.56,0,408.94,408.94,0,911.56,0c502.63,0,911.56,408.94,911.56,911.56h0ZM40.51,911.56c0,480.31,390.73,871.05,871.05,871.05s871.05-390.73,871.05-871.05S1391.87,40.51,911.56,40.51,40.51,431.25,40.51,911.56h0Z"/><path class="cls-1" d="M1304.59,930.87c0,2.97-.67,5.97-2.02,8.78-3.36,7-10.44,11.47-18.24,11.47h-175.59s0,406.96,0,406.96c0,11.2-9.06,20.26-20.26,20.26h-353.9c-11.19,0-20.26-9.06-20.26-20.26v-406.96s-175.58,0-175.58,0c-7.79,0-14.88-4.47-18.24-11.47-3.44-7.08-2.46-15.35,2.41-21.44l372.82-465.83c3.84-4.78,9.69-7.6,15.82-7.6s11.99,2.81,15.82,7.6l372.78,465.83c2.93,3.68,4.43,8.15,4.43,12.66h0ZM1068.23,1337.83v-406.96c0-11.2,9.06-20.26,20.26-20.26h153.7s-330.64-413.17-330.64-413.17l-330.64,413.17h153.66c11.2,0,20.26,9.06,20.26,20.26v406.96s313.39,0,313.39,0h0Z"/></g></svg>