<?xml version="1.0" encoding="UTF-8"?><svg id="Calque_2" xmlns="http://www.w3.org/2000/svg" viewBox="0 0 1845.76 1845.76"><defs><style>.cls-1{fill:#c8953b;}</style></defs><g id="history"><path class="cls-1" d="M922.88,1845.76C413.99,1845.76,0,1431.77,0,922.88S413.99,0,922.88,0s922.88,414,922.88,922.88-414,922.88-922.88,922.88h0ZM922.88,41.02C436.62,41.02,41.02,436.63,41.02,922.88s395.61,881.86,881.86,881.86,881.87-395.61,881.87-881.86S1409.13,41.02,922.88,41.02h0Z"/><path class="cls-1" d="M1292.03,1303.45h-262.37c-11.34,0-20.51-9.17-20.51-20.51v-279.03h-172.56v279.03c0,11.34-9.17,20.51-20.51,20.51h-262.36c-11.34,0-20.51-9.17-20.51-20.51v-426.03c0-11.34,9.17-20.51,20.51-20.51s20.51,9.17,20.51,20.51v405.52h221.35v-279.03c0-11.34,9.17-20.51,20.51-20.51h213.58c11.34,0,20.51,9.17,20.51,20.51v279.03h221.35v-405.52c0-11.34,9.17-20.51,20.51-20.51s20.51,9.17,20.51,20.51v426.03c0,11.34-9.18,20.51-20.51,20.51h0Z"/><path class="cls-1" d="M1415.63,936.22c-4.13,0-8.31-1.24-11.92-3.83l-480.83-344.34-480.83,344.34c-9.19,6.59-22.01,4.47-28.62-4.75-6.59-9.21-4.47-22.01,4.75-28.62l492.76-352.89c7.13-5.09,16.74-5.09,23.87,0l492.77,352.89c9.21,6.61,11.33,19.41,4.75,28.62-4.01,5.59-10.32,8.57-16.7,8.57h0Z"/></g></svg>