<?xml version="1.0" encoding="UTF-8"?><svg id="Calque_2" xmlns="http://www.w3.org/2000/svg" viewBox="0 0 1823.12 1823.12"><defs><style>.cls-1{fill:#c8953b;}</style></defs><g id="down"><path class="cls-1" d="M0,911.56C0,408.93,408.93,0,911.56,0c502.62,0,911.56,408.93,911.56,911.56,0,502.62-408.94,911.56-911.56,911.56C408.93,1823.12,0,1414.18,0,911.56h0ZM1782.61,911.56c0-480.31-390.73-871.05-871.05-871.05-480.31,0-871.05,390.73-871.05,871.05s390.73,871.05,871.05,871.05c480.31,0,871.05-390.73,871.05-871.05h0Z"/><path class="cls-1" d="M518.53,892.25c0-2.97.67-5.97,2.02-8.78,3.36-7,10.44-11.47,18.24-11.47h175.59s0-406.96,0-406.96c0-11.2,9.06-20.26,20.26-20.26h353.9c11.19,0,20.26,9.06,20.26,20.26v406.96s175.58,0,175.58,0c7.79,0,14.88,4.47,18.24,11.47,3.44,7.08,2.46,15.35-2.41,21.44l-372.82,465.83c-3.84,4.78-9.69,7.6-15.82,7.6-6.17,0-11.99-2.81-15.82-7.6l-372.78-465.83c-2.93-3.68-4.43-8.15-4.43-12.66h0ZM754.88,485.29v406.96c0,11.2-9.06,20.26-20.26,20.26h-153.7s330.64,413.17,330.64,413.17l330.64-413.17h-153.66c-11.2,0-20.26-9.06-20.26-20.26v-406.96s-313.39,0-313.39,0h0Z"/></g></svg>